<?xml version="1.0" encoding="utf-8"?>
<!-- Generator: Adobe Illustrator 21.1.0, SVG Export Plug-In . SVG Version: 6.00 Build 0)  -->
<svg version="1.1" xmlns="http://www.w3.org/2000/svg" xmlns:xlink="http://www.w3.org/1999/xlink" x="0px" y="0px"
	 viewBox="0 0 288.6 54.3" enable-background="new 0 0 288.6 54.3" xml:space="preserve">
<g id="text">
	<g>
		<path fill="#222222" d="M57.9,2h29.9l-2.2,10.2H71.3l-0.9,4.2h13.3l-2.2,10.2H68.3l-3.1,14.6H49.6L57.9,2z"/>
		<path fill="#222222" d="M90.3,2h13.2l-8.3,39.3H82L90.3,2z"/>
		<path fill="#222222" d="M103.3,14h13.2l-5.8,27.3H97.5L103.3,14z M105.9,2h13.2l-1.8,8.4h-13.2L105.9,2z"/>
		<path fill="#222222" d="M133.8,37.3h-0.1c-2.7,2.9-6.2,3.5-9.2,3.5c-5.4,0-11.1-3.2-9-13.1c2.2-10.2,8.3-14.6,15.1-14.6
			c3.2,0,5.8,1,7,3.8h0.1l0.9-3h12.4l-5.3,24.9c-2.4,11.1-9.6,13.5-19.4,13.5c-10.7,0-13.5-3.7-12.9-9.2h12.9
			c-0.1,0.6,0,1.2,0.4,1.6c0.4,0.4,1.1,0.6,2,0.6c2.3,0,3.7-1.2,4.4-4.6L133.8,37.3z M135.5,27.2c0.7-3.2,1.4-6.4-1.7-6.4
			c-3.2,0-4.1,4-4.7,7c-0.7,3.3-1.1,5.5,1.8,5.5C134.1,33.4,134.8,30.6,135.5,27.2z"/>
		<path fill="#222222" d="M156.2,2h13.2l-3.3,15.7h0.1c2.5-2.9,5.1-4.5,9.6-4.5c5.5,0,8.9,2.7,7.4,10l-3.9,18.2H166l3.6-16.9
			c0.4-2-0.1-3.2-1.7-3.2c-1.5,0-2.8,0.9-3.3,3l-3.6,17h-13.2L156.2,2z"/>
		<path fill="#222222" d="M188.6,22H185l1.7-8.1h3.5l0.9-4.4L205.4,5l-1.9,9h5.9l-1.7,8.1h-5.9l-1.8,8.4c-0.4,2.1,0.1,2.8,1.6,2.8
			c0.9,0,2,0,3.3-0.3l-1.7,8.1c-3.1,0.7-6.4,1.2-9,1.2c-5.1,0-9.5-1.6-8.2-7.7L188.6,22z"/>
		<path fill="#222222" d="M205.6,41.3L213.9,2h3.5l-3.7,17.2h21.4L238.9,2h3.5l-8.3,39.3h-3.5l4-18.8h-21.4l-4,18.8H205.6z"/>
		<path fill="#222222" d="M260.8,14h3.3l-4.5,21.2c-0.5,2.1-0.8,4.3-1,6.1h-3.4l0.7-4l-0.1-0.1c-2.6,3.4-6.1,5-9.6,5
			c-8.9,0-8-7.9-7.3-11l3.6-17.1h3.3l-3.7,17.6c-1,4.7,1.1,7.5,5.6,7.5c5.4,0,8.8-4.5,9.8-9.4L260.8,14z"/>
		<path fill="#222222" d="M264.1,41.3h-3.4c0.5-1.8,1.1-4,1.6-6.1l7-33.1h3.3l-3.4,16l0.1,0.1c2.6-3.2,6.8-5,10.4-5
			c8.1,0,9.7,7.3,8.2,14.4c-1.5,6.9-6.2,14.6-14.1,14.6c-4,0-6.9-1.8-8.4-5.1l-0.2,0.2L264.1,41.3z M267.2,27.1
			c-1.3,6.2-0.4,12,6.7,12c6.3,0,9.3-6.8,10.4-11.9c1.1-5.2,0.2-11.1-6-11.1C272,16.1,268.4,21.5,267.2,27.1z"/>
	</g>
</g>
<g id="orange">
	<path fill="#F26722" d="M23.3,29.4c0,0,0.5,11.7,11.8,11.7c11.3,0,13,0,13,0l2.6-11.7H23.3z"/>
</g>
<g id="tellow">
	<path fill="#FAAE1A" d="M12.2,15.6c0,0,0.5,12.2,11.8,12.2c11.3,0,27.2,0,27.2,0l2.6-12.2H12.2z"/>
</g>
<g id="blue">
	<path fill="#0074A5" d="M1,2c0,0,0.5,12.2,11.8,12.2c11.3,0,41.3,0,41.3,0L56.8,2H1z"/>
	<g display="none">
		<path display="inline" d="M97.6,32h13l-0.5,2.6h-9.9l-1.4,6.8h9.3l-0.5,2.5h-9.3L96,53.7h-3.1L97.6,32z"/>
		<path display="inline" d="M119.7,32h3.2l4.2,21.8h-3.3l-1.1-5.7h-10.1l-3.6,5.7h-3.1L119.7,32z M114,45.6h8.2L120.5,35L114,45.6z"
			/>
		<path display="inline" d="M134.6,32h7.8c1.1,0,3.4,0,4.8,1c1.4,1,1.8,2.7,1.5,4.4c-0.3,1.5-1.2,2.9-2.4,3.9
			c-1.1,0.9-2.2,1.2-2.9,1.4c2,0.5,2.7,1.5,2.4,4.2c-0.2,2.6-0.4,4.4-0.1,6.8h-3.2c-0.2-1.4,0.1-4.1,0.2-5.8
			c0.3-3.2-0.3-4.1-3.9-4.1H135l-2.1,9.8h-3L134.6,32z M135.5,41.4h4.8c0.3,0,2.1,0,3-0.5c0.5-0.2,1.7-1,2.1-2.8
			c0.8-3.5-2.4-3.5-3.6-3.5H137L135.5,41.4z"/>
		<path display="inline" d="M154.4,32H168l-0.5,2.6h-10.6l-1.4,6.8h10.1l-0.5,2.5h-10.1l-1.5,7.2h10.9l-0.6,2.7h-13.9L154.4,32z"/>
		<path display="inline" d="M186.8,32h3.2l4.2,21.8h-3.3l-1.1-5.7h-10.1l-3.6,5.7H173L186.8,32z M181.2,45.6h8.2L187.6,35
			L181.2,45.6z"/>
		<path display="inline" d="M201.9,32h3l-4,19.1H211l-0.6,2.7h-13.1L201.9,32z"/>
		<path display="inline" d="M218.2,32h13.7l-0.5,2.6h-10.6l-1.4,6.8h10.1l-0.5,2.5h-10.1l-1.5,7.2H228l-0.6,2.7h-13.9L218.2,32z"/>
		<path display="inline" d="M236.9,32h7.8c1.1,0,3.4,0,4.8,1c1.4,1,1.8,2.7,1.5,4.4c-0.3,1.5-1.2,2.9-2.4,3.9
			c-1.1,0.9-2.2,1.2-2.9,1.4c2,0.5,2.7,1.5,2.4,4.2c-0.2,2.6-0.4,4.4-0.1,6.8h-3.2c-0.2-1.4,0.1-4.1,0.2-5.8
			c0.3-3.2-0.3-4.1-3.9-4.1h-3.8l-2.1,9.8h-3L236.9,32z M237.8,41.4h4.8c0.3,0,2.1,0,3-0.5c0.5-0.2,1.7-1,2.1-2.8
			c0.8-3.5-2.4-3.5-3.6-3.5h-4.8L237.8,41.4z"/>
		<path display="inline" d="M256.8,53.7l4.1-19.2h-7.3l0.5-2.6h17.6l-0.5,2.6h-7.3l-4.1,19.2H256.8z"/>
		<path display="inline" d="M273.4,47.4c-0.3,1.5-0.7,4.3,4.3,4.3c4.5,0,5.7-2.8,5.9-3.9c0.5-2.4-1.4-2.9-4.2-3.7
			c-3.1-0.8-4.6-1.2-5.5-1.9c-1.5-1.2-1.7-2.8-1.3-4.3c0.9-4.4,5.5-6.4,9.6-6.4c1.4,0,4.3,0.2,5.7,2.1c0.9,1.3,0.7,2.8,0.5,3.7h-3.1
			c0.4-2.7-1.7-3.3-3.9-3.3c-3,0-5.1,1.4-5.6,3.5c-0.4,1.9,0.7,2.6,3.2,3.2c4.9,1.3,5.5,1.4,6.5,2.3c1.7,1.3,1.4,3.4,1.2,4.3
			c-0.8,3.9-4.5,6.8-10,6.8c-1.7,0-5-0.3-6.2-2.5c-0.9-1.6-0.6-3.3-0.3-4.4H273.4z"/>
	</g>
</g>
</svg>
